<?xml version="1.0" standalone="no"?>
<!DOCTYPE svg PUBLIC "-//W3C//DTD SVG 20010904//EN"
 "http://www.w3.org/TR/2001/REC-SVG-20010904/DTD/svg10.dtd">
<svg version="1.0" xmlns="http://www.w3.org/2000/svg"
 width="300.000000pt" height="300.000000pt" viewBox="0 0 300.000000 300.000000"
 preserveAspectRatio="xMidYMid meet">

<g transform="translate(0.000000,300.000000) scale(0.100000,-0.100000)"
fill="#000000" stroke="none">
<path d="M1365 2600 c-373 -53 -682 -269 -849 -595 -86 -167 -121 -317 -119
-515 1 -126 5 -160 31 -260 109 -423 433 -726 877 -821 98 -21 323 -16 434 10
217 50 381 142 541 301 118 118 184 214 242 355 62 153 82 256 81 430 -1 132
-5 164 -31 265 -123 479 -538 814 -1029 834 -65 3 -145 1 -178 -4z m445 -555
l0 -115 -69 0 c-38 0 -81 -4 -94 -9 -31 -12 -47 -57 -47 -132 l0 -59 105 0
106 0 -7 -62 c-3 -35 -9 -88 -13 -118 l-6 -55 -87 -3 -88 -3 -2 -327 -3 -327
-140 0 -140 0 -5 330 -5 330 -60 0 -60 0 -3 118 -3 117 66 0 65 0 0 73 c0 145
26 232 86 292 51 52 99 63 262 64 l142 1 0 -115z"/>
</g>
</svg>
